<svg width="657" height="135" viewBox="0 0 657 135" fill="none" xmlns="http://www.w3.org/2000/svg">
<path d="M57.36 35.902C57.36 35.4038 57.7684 35 58.2722 35H86.0729C86.5767 35 86.9851 35.4038 86.9851 35.902V60.3077C86.9851 60.8058 86.5767 61.2097 86.0729 61.2097H58.2722C57.7684 61.2097 57.36 60.8058 57.36 60.3077V35.902Z" fill="#2897EC"/>
<path d="M57.36 72.4529C57.36 71.4545 58.1768 70.6452 59.1844 70.6452H85.1607C86.1683 70.6452 86.9851 71.4545 86.9851 72.4529V98.1923C86.9851 99.1906 86.1683 100 85.1607 100H59.1844C58.1768 100 57.36 99.1906 57.36 98.1923V72.4529Z" fill="#2897EC"/>
<path d="M35 38.6111C35 36.6168 37.6106 35 40.831 35H44.4753C45.2804 35 45.9331 35.4042 45.9331 35.9028V99.0972C45.9331 99.5958 45.2804 100 44.4753 100H40.831C37.6106 100 35 98.3832 35 96.3889V38.6111Z" fill="#2897EC"/>
<path d="M96.5074 56.8745C96.5074 56.3737 96.8964 55.9677 97.3762 55.9677H107.277C107.757 55.9677 108.146 56.3737 108.146 56.8745V96.3728C108.146 98.376 106.59 100 104.67 100H97.3762C96.8964 100 96.5074 99.594 96.5074 99.0932V56.8745Z" fill="#2897EC"/>
<path d="M96.5074 38.6176C96.5074 36.6196 98.0634 35 99.9828 35H104.67C106.59 35 108.146 36.6196 108.146 38.6176V45.0114C108.146 47.0094 106.59 48.629 104.67 48.629H99.9828C98.0634 48.629 96.5074 47.0094 96.5074 45.0114V38.6176Z" fill="#2897EC"/>
<path d="M145.318 92.1236V43.4328H152.759V63.6047H174.24V43.4328H181.681V92.1236H174.24V70.3519H152.759V92.1236H145.318Z" fill="white"/>
<path d="M213.032 92.9583C209.663 92.9583 206.691 92.2164 204.117 90.7325C201.543 89.2022 199.531 87.0922 198.08 84.4027C196.629 81.7131 195.904 78.583 195.904 75.0123C195.904 71.3953 196.606 68.2188 198.01 65.4828C199.461 62.7469 201.473 60.6137 204.047 59.0835C206.668 57.5532 209.686 56.788 213.103 56.788C216.472 56.788 219.374 57.5532 221.807 59.0835C224.241 60.5674 226.113 62.5614 227.423 65.0655C228.78 67.5696 229.459 70.3287 229.459 73.3429C229.459 73.8066 229.459 74.3167 229.459 74.8732C229.459 75.3833 229.435 75.9629 229.389 76.6121H203.205C203.439 79.8118 204.492 82.2464 206.364 83.9158C208.235 85.5388 210.435 86.3503 212.962 86.3503C215.162 86.3503 216.893 85.9098 218.157 85.0287C219.467 84.1012 220.427 82.8492 221.035 81.2725H228.546C227.704 84.565 225.949 87.3473 223.281 89.6195C220.614 91.8454 217.197 92.9583 213.032 92.9583ZM213.032 63.1874C210.739 63.1874 208.703 63.883 206.925 65.2741C205.147 66.6189 204 68.5202 203.485 70.9779H222.018C221.831 68.6593 220.918 66.7812 219.28 65.3437C217.642 63.9062 215.56 63.1874 213.032 63.1874Z" fill="white"/>
<path d="M245.437 92.1236V85.7243H257.09V50.7365C257.09 49.2062 256.341 48.441 254.843 48.441H246.419V42.0417H256.177C258.891 42.0417 260.951 42.7604 262.355 44.198C263.805 45.5891 264.531 47.6295 264.531 50.3191V85.7243H276.254V92.1236H245.437Z" fill="white"/>
<path d="M294.548 92.1236V85.7243H306.201V50.7365C306.201 49.2062 305.452 48.441 303.955 48.441H295.531V42.0417H305.289C308.003 42.0417 310.062 42.7604 311.466 44.198C312.917 45.5891 313.642 47.6295 313.642 50.3191V85.7243H325.365V92.1236H294.548Z" fill="white"/>
<path d="M359.946 92.9583C356.623 92.9583 353.651 92.2164 351.031 90.7325C348.41 89.2486 346.351 87.1618 344.853 84.4722C343.355 81.7363 342.607 78.5366 342.607 74.8732C342.607 71.2098 343.355 68.0333 344.853 65.3437C346.351 62.6077 348.41 60.4978 351.031 59.0139C353.651 57.53 356.646 56.788 360.016 56.788C363.385 56.788 366.357 57.53 368.931 59.0139C371.552 60.4978 373.588 62.6077 375.038 65.3437C376.536 68.0333 377.285 71.2098 377.285 74.8732C377.285 78.5366 376.536 81.7363 375.038 84.4722C373.541 87.1618 371.482 89.2486 368.861 90.7325C366.287 92.2164 363.315 92.9583 359.946 92.9583ZM359.946 85.9329C361.724 85.9329 363.362 85.5388 364.86 84.7505C366.357 83.9621 367.551 82.7565 368.44 81.1334C369.376 79.464 369.844 77.3773 369.844 74.8732C369.844 72.3227 369.376 70.236 368.44 68.6129C367.551 66.9899 366.357 65.7842 364.86 64.9959C363.409 64.2076 361.794 63.8134 360.016 63.8134C358.238 63.8134 356.6 64.2076 355.102 64.9959C353.604 65.7842 352.388 66.9899 351.452 68.6129C350.563 70.236 350.118 72.3227 350.118 74.8732C350.118 78.6757 351.077 81.4812 352.996 83.2897C354.962 85.0519 357.278 85.9329 359.946 85.9329Z" fill="white"/>
<path d="M389.753 92.1236V57.6227H395.93L396.562 61.6571H396.913C397.521 60.2196 398.457 59.0603 399.721 58.1792C400.984 57.2518 402.482 56.788 404.214 56.788C405.898 56.788 407.372 57.2054 408.636 58.0401C409.9 58.8748 410.836 60.0805 411.444 61.6571H411.725C412.333 60.2659 413.293 59.1066 414.603 58.1792C415.913 57.2518 417.528 56.788 419.447 56.788C422.021 56.788 423.963 57.6227 425.273 59.2921C426.63 60.9615 427.309 63.3033 427.309 66.3175V92.1236H420.149V67.7782C420.149 66.3871 419.844 65.2973 419.236 64.509C418.674 63.6743 417.762 63.2569 416.498 63.2569C415.235 63.2569 414.182 63.7439 413.339 64.7177C412.544 65.6915 412.146 67.0595 412.146 68.8216V92.1236H404.916V67.7782C404.916 66.3871 404.635 65.2973 404.073 64.509C403.512 63.6743 402.599 63.2569 401.335 63.2569C400.072 63.2569 399.019 63.7439 398.177 64.7177C397.334 65.6915 396.913 67.0595 396.913 68.8216V92.1236H389.753Z" fill="#2897EC"/>
<path d="M458.59 92.9583C455.22 92.9583 452.249 92.2164 449.675 90.7325C447.101 89.2022 445.088 87.0922 443.638 84.4027C442.187 81.7131 441.462 78.583 441.462 75.0123C441.462 71.3953 442.164 68.2188 443.568 65.4828C445.018 62.7469 447.031 60.6137 449.605 59.0835C452.225 57.5532 455.244 56.788 458.66 56.788C462.03 56.788 464.931 57.5532 467.365 59.0835C469.798 60.5674 471.67 62.5614 472.981 65.0655C474.338 67.5696 475.016 70.3287 475.016 73.3429C475.016 73.8066 475.016 74.3167 475.016 74.8732C475.016 75.3833 474.993 75.9629 474.946 76.6121H448.762C448.996 79.8118 450.049 82.2464 451.921 83.9158C453.793 85.5388 455.993 86.3503 458.52 86.3503C460.719 86.3503 462.451 85.9098 463.714 85.0287C465.025 84.1012 465.984 82.8492 466.593 81.2725H474.104C473.261 84.565 471.507 87.3473 468.839 89.6195C466.171 91.8454 462.755 92.9583 458.59 92.9583ZM458.59 63.1874C456.297 63.1874 454.261 63.883 452.483 65.2741C450.704 66.6189 449.558 68.5202 449.043 70.9779H467.575C467.388 68.6593 466.476 66.7812 464.838 65.3437C463.2 63.9062 461.117 63.1874 458.59 63.1874Z" fill="#2897EC"/>
<path d="M511.071 92.1236C507.655 92.1236 504.94 91.3121 502.928 89.6891C500.916 88.0197 499.909 85.0751 499.909 80.8552V63.883H491.135V57.6227H496.329C498.716 57.6227 500.12 56.4634 500.541 54.1448L501.594 48.5802H507.351V57.6227H521.109V63.883H507.351V80.7161C507.351 82.5246 507.748 83.7998 508.544 84.5418C509.386 85.2374 510.814 85.5852 512.826 85.5852H520.969V92.1236H511.071Z" fill="#2897EC"/>
<path d="M556.813 92.9583C553.443 92.9583 550.472 92.2164 547.898 90.7325C545.324 89.2022 543.312 87.0922 541.861 84.4027C540.41 81.7131 539.685 78.583 539.685 75.0123C539.685 71.3953 540.387 68.2188 541.791 65.4828C543.241 62.7469 545.254 60.6137 547.828 59.0835C550.448 57.5532 553.467 56.788 556.883 56.788C560.253 56.788 563.154 57.5532 565.588 59.0835C568.021 60.5674 569.893 62.5614 571.204 65.0655C572.561 67.5696 573.239 70.3287 573.239 73.3429C573.239 73.8066 573.239 74.3167 573.239 74.8732C573.239 75.3833 573.216 75.9629 573.169 76.6121H546.985C547.219 79.8118 548.272 82.2464 550.144 83.9158C552.016 85.5388 554.216 86.3503 556.743 86.3503C558.942 86.3503 560.674 85.9098 561.938 85.0287C563.248 84.1012 564.207 82.8492 564.816 81.2725H572.327C571.485 84.565 569.73 87.3473 567.062 89.6195C564.394 91.8454 560.978 92.9583 556.813 92.9583ZM556.813 63.1874C554.52 63.1874 552.484 63.883 550.706 65.2741C548.927 66.6189 547.781 68.5202 547.266 70.9779H565.798C565.611 68.6593 564.699 66.7812 563.061 65.3437C561.423 63.9062 559.34 63.1874 556.813 63.1874Z" fill="#2897EC"/>
<path d="M589.849 92.1236V85.7243H598.343V66.3175C598.343 64.7872 597.594 64.0221 596.097 64.0221H590.551V57.6227H598.905C600.823 57.6227 602.391 58.1792 603.608 59.2921C604.825 60.3587 605.433 61.8658 605.433 63.8134V64.6481H605.784C606.299 62.0513 607.399 60.1036 609.083 58.8052C610.815 57.4604 613.319 56.788 616.595 56.788H622V64.5786H614.419C611.657 64.5786 609.528 65.5292 608.031 67.4304C606.533 69.3317 605.784 71.6039 605.784 74.2472V85.7243H616.595V92.1236H589.849Z" fill="#2897EC"/>
</svg>
