<svg width="570" height="140" viewBox="0 0 570 140" fill="none" xmlns="http://www.w3.org/2000/svg">
<path d="M58.8995 35.9714C58.8995 35.4349 59.336 35 59.8745 35H89.5892C90.1277 35 90.5642 35.4349 90.5642 35.9714V62.2544C90.5642 62.7909 90.1277 63.2258 89.5892 63.2258H59.8745C59.336 63.2258 58.8995 62.7909 58.8995 62.2544V35.9714Z" fill="#2897EC"/>
<path d="M58.8995 75.3339C58.8995 74.2587 59.7725 73.3871 60.8495 73.3871H88.6142C89.6912 73.3871 90.5642 74.2587 90.5642 75.3339V103.053C90.5642 104.128 89.6912 105 88.6142 105H60.8495C59.7725 105 58.8995 104.128 58.8995 103.053V75.3339Z" fill="#2897EC"/>
<path d="M35 38.8889C35 36.7411 37.7904 35 41.2324 35H45.1277C45.9882 35 46.6858 35.4353 46.6858 35.9722V104.028C46.6858 104.565 45.9882 105 45.1277 105H41.2324C37.7904 105 35 103.259 35 101.111V38.8889Z" fill="#2897EC"/>
<path d="M100.742 58.5572C100.742 58.0178 101.158 57.5806 101.671 57.5806H112.253C112.766 57.5806 113.182 58.0178 113.182 58.5572V101.094C113.182 103.251 111.519 105 109.467 105H101.671C101.158 105 100.742 104.563 100.742 104.023V58.5572Z" fill="#2897EC"/>
<path d="M100.742 38.8959C100.742 36.7442 102.405 35 104.457 35H109.467C111.519 35 113.182 36.7442 113.182 38.8959V45.7816C113.182 47.9332 111.519 49.6774 109.467 49.6774H104.457C102.405 49.6774 100.742 47.9332 100.742 45.7816V38.8959Z" fill="#2897EC"/>
<path d="M137.727 77.0268V36.1674H143.915V53.0949H161.776V36.1674H167.963V77.0268H161.776V58.7568H143.915V77.0268H137.727Z" fill="white"/>
<path d="M194.032 77.7273C191.23 77.7273 188.759 77.1047 186.619 75.8594C184.479 74.5753 182.805 72.8047 181.599 70.5477C180.393 68.2907 179.79 65.664 179.79 62.6677C179.79 59.6324 180.373 56.9668 181.541 54.6709C182.747 52.375 184.42 50.5849 186.561 49.3008C188.74 48.0166 191.25 47.3746 194.09 47.3746C196.892 47.3746 199.305 48.0166 201.328 49.3008C203.352 50.546 204.908 52.2193 205.998 54.3207C207.126 56.422 207.691 58.7374 207.691 61.2668C207.691 61.6559 207.691 62.084 207.691 62.5509C207.691 62.979 207.671 63.4654 207.632 64.0102H185.86C186.055 66.6952 186.93 68.7382 188.487 70.1391C190.043 71.5011 191.872 72.1821 193.974 72.1821C195.803 72.1821 197.242 71.8124 198.293 71.073C199.383 70.2948 200.18 69.2441 200.686 67.921H206.932C206.231 70.6839 204.772 73.0187 202.554 74.9255C200.336 76.7933 197.495 77.7273 194.032 77.7273ZM194.032 52.7447C192.125 52.7447 190.432 53.3284 188.954 54.4958C187.475 55.6243 186.522 57.2197 186.094 59.2822H201.503C201.348 57.3365 200.589 55.7605 199.227 54.5541C197.865 53.3478 196.133 52.7447 194.032 52.7447Z" fill="white"/>
<path d="M220.976 77.0268V71.6567H230.666V42.2963C230.666 41.0122 230.043 40.3701 228.798 40.3701H221.793V35H229.907C232.164 35 233.876 35.6032 235.044 36.8095C236.25 37.9769 236.853 39.6891 236.853 41.9461V71.6567H246.601V77.0268H220.976Z" fill="white"/>
<path d="M261.813 77.0268V71.6567H271.502V42.2963C271.502 41.0122 270.88 40.3701 269.634 40.3701H262.63V35H270.744C273.001 35 274.713 35.6032 275.88 36.8095C277.086 37.9769 277.69 39.6891 277.69 41.9461V71.6567H287.437V77.0268H261.813Z" fill="white"/>
<path d="M316.191 77.7273C313.428 77.7273 310.957 77.1047 308.778 75.8594C306.599 74.6142 304.887 72.8631 303.642 70.6061C302.396 68.3102 301.774 65.6251 301.774 62.5509C301.774 59.4767 302.396 56.8111 303.642 54.5541C304.887 52.2582 306.599 50.4877 308.778 49.2424C310.957 47.9972 313.448 47.3746 316.25 47.3746C319.051 47.3746 321.522 47.9972 323.663 49.2424C325.842 50.4877 327.535 52.2582 328.741 54.5541C329.986 56.8111 330.609 59.4767 330.609 62.5509C330.609 65.6251 329.986 68.3102 328.741 70.6061C327.496 72.8631 325.784 74.6142 323.604 75.8594C321.464 77.1047 318.993 77.7273 316.191 77.7273ZM316.191 71.8318C317.67 71.8318 319.032 71.5011 320.277 70.8395C321.522 70.178 322.515 69.1663 323.254 67.8043C324.032 66.4034 324.422 64.6523 324.422 62.5509C324.422 60.4107 324.032 58.6595 323.254 57.2976C322.515 55.9356 321.522 54.9238 320.277 54.2623C319.071 53.6008 317.728 53.27 316.25 53.27C314.771 53.27 313.409 53.6008 312.164 54.2623C310.919 54.9238 309.907 55.9356 309.128 57.2976C308.389 58.6595 308.019 60.4107 308.019 62.5509C308.019 65.7418 308.817 68.0961 310.413 69.6138C312.047 71.0925 313.973 71.8318 316.191 71.8318Z" fill="white"/>
<path d="M340.976 77.0268V48.075H346.113L346.638 51.4605H346.93C347.436 50.2542 348.214 49.2813 349.265 48.542C350.315 47.7637 351.56 47.3746 353 47.3746C354.401 47.3746 355.627 47.7248 356.678 48.4252C357.728 49.1257 358.507 50.1374 359.012 51.4605H359.246C359.752 50.2931 360.549 49.3203 361.639 48.542C362.729 47.7637 364.071 47.3746 365.667 47.3746C367.807 47.3746 369.422 48.075 370.511 49.4759C371.64 50.8768 372.204 52.8419 372.204 55.3713V77.0268H366.25V56.5971C366.25 55.4297 365.997 54.5152 365.492 53.8537C365.025 53.1533 364.266 52.803 363.215 52.803C362.164 52.803 361.289 53.2116 360.588 54.0288C359.927 54.846 359.596 55.994 359.596 57.4727V77.0268H353.584V56.5971C353.584 55.4297 353.35 54.5152 352.884 53.8537C352.417 53.1533 351.658 52.803 350.607 52.803C349.556 52.803 348.681 53.2116 347.98 54.0288C347.28 54.846 346.93 55.994 346.93 57.4727V77.0268H340.976Z" fill="#2897EC"/>
<path d="M398.215 77.7273C395.413 77.7273 392.942 77.1047 390.801 75.8594C388.661 74.5753 386.988 72.8047 385.782 70.5477C384.575 68.2907 383.972 65.664 383.972 62.6677C383.972 59.6324 384.556 56.9668 385.723 54.6709C386.93 52.375 388.603 50.5849 390.743 49.3008C392.922 48.0166 395.432 47.3746 398.273 47.3746C401.075 47.3746 403.487 48.0166 405.511 49.3008C407.534 50.546 409.091 52.2193 410.18 54.3207C411.309 56.422 411.873 58.7374 411.873 61.2668C411.873 61.6559 411.873 62.084 411.873 62.5509C411.873 62.979 411.854 63.4654 411.815 64.0102H390.043C390.237 66.6952 391.113 68.7382 392.669 70.1391C394.226 71.5011 396.055 72.1821 398.156 72.1821C399.985 72.1821 401.425 71.8124 402.476 71.073C403.565 70.2948 404.363 69.2441 404.869 67.921H411.114C410.414 70.6839 408.955 73.0187 406.737 74.9255C404.519 76.7933 401.678 77.7273 398.215 77.7273ZM398.215 52.7447C396.308 52.7447 394.615 53.3284 393.136 54.4958C391.658 55.6243 390.704 57.2197 390.276 59.2822H405.686C405.53 57.3365 404.771 55.7605 403.41 54.5541C402.048 53.3478 400.316 52.7447 398.215 52.7447Z" fill="#2897EC"/>
<path d="M441.853 77.0268C439.012 77.0268 436.755 76.3458 435.082 74.9839C433.409 73.583 432.572 71.1119 432.572 67.5708V53.3284H425.276V48.075H429.595C431.58 48.075 432.747 47.1022 433.097 45.1565L433.973 40.4868H438.759V48.075H450.2V53.3284H438.759V67.4541C438.759 68.9717 439.09 70.0418 439.751 70.6644C440.452 71.2481 441.639 71.54 443.312 71.54H450.083V77.0268H441.853Z" fill="#2897EC"/>
<path d="M479.888 77.7273C477.086 77.7273 474.615 77.1047 472.475 75.8594C470.334 74.5753 468.661 72.8047 467.455 70.5477C466.248 68.2907 465.645 65.664 465.645 62.6677C465.645 59.6324 466.229 56.9668 467.396 54.6709C468.603 52.375 470.276 50.5849 472.416 49.3008C474.595 48.0166 477.105 47.3746 479.946 47.3746C482.748 47.3746 485.16 48.0166 487.184 49.3008C489.207 50.546 490.764 52.2193 491.854 54.3207C492.982 56.422 493.546 58.7374 493.546 61.2668C493.546 61.6559 493.546 62.084 493.546 62.5509C493.546 62.979 493.527 63.4654 493.488 64.0102H471.716C471.91 66.6952 472.786 68.7382 474.342 70.1391C475.899 71.5011 477.728 72.1821 479.829 72.1821C481.658 72.1821 483.098 71.8124 484.149 71.073C485.238 70.2948 486.036 69.2441 486.542 67.921H492.787C492.087 70.6839 490.628 73.0187 488.41 74.9255C486.192 76.7933 483.351 77.7273 479.888 77.7273ZM479.888 52.7447C477.981 52.7447 476.288 53.3284 474.809 54.4958C473.331 55.6243 472.377 57.2197 471.949 59.2822H487.359C487.203 57.3365 486.445 55.7605 485.083 54.5541C483.721 53.3478 481.989 52.7447 479.888 52.7447Z" fill="#2897EC"/>
<path d="M507.357 77.0268V71.6567H514.42V55.3713C514.42 54.0872 513.797 53.4451 512.552 53.4451H507.941V48.075H514.887C516.482 48.075 517.786 48.542 518.798 49.4759C519.81 50.3709 520.315 51.6356 520.315 53.27V53.9704H520.607C521.035 51.7913 521.95 50.1569 523.351 49.0673C524.791 47.9388 526.872 47.3746 529.596 47.3746H534.091V53.9121H527.787C525.491 53.9121 523.72 54.7098 522.475 56.3053C521.23 57.9007 520.607 59.8075 520.607 62.0256V71.6567H529.596V77.0268H507.357Z" fill="#2897EC"/>
<path d="M145.762 101.364C144.634 101.364 143.672 101.081 142.878 100.516C142.096 99.951 141.493 99.16 141.07 98.1429C140.66 97.1133 140.455 95.9204 140.455 94.5643C140.455 93.1956 140.66 92.0028 141.07 90.9857C141.493 89.9561 142.102 89.1587 142.897 88.5937C143.692 88.0161 144.647 87.7273 145.762 87.7273C147.211 87.7273 148.365 88.1165 149.224 88.895C150.083 89.661 150.583 90.7032 150.724 92.0216H148.474C148.358 91.331 148.07 90.7597 147.608 90.3076C147.16 89.843 146.538 89.6107 145.743 89.6107C144.73 89.6107 143.942 90.0502 143.378 90.9292C142.813 91.8081 142.531 93.0198 142.531 94.5643C142.531 96.0962 142.813 97.3016 143.378 98.1806C143.942 99.047 144.73 99.4802 145.743 99.4802C146.563 99.4802 147.192 99.273 147.628 98.8586C148.063 98.4317 148.345 97.8729 148.474 97.1823H150.724C150.519 98.4756 149.999 99.499 149.166 100.252C148.333 100.993 147.198 101.364 145.762 101.364Z" fill="white"/>
<path d="M172.927 101.364C171.838 101.364 170.895 101.087 170.1 100.535C169.306 99.9824 168.697 99.1976 168.274 98.1806C167.851 97.1635 167.639 95.9518 167.639 94.5455C167.639 93.1391 167.851 91.9274 168.274 90.9103C168.697 89.8933 169.306 89.1085 170.1 88.556C170.895 88.0035 171.838 87.7273 172.927 87.7273C174.03 87.7273 174.972 88.0035 175.754 88.556C176.549 89.1085 177.158 89.8933 177.581 90.9103C178.004 91.9274 178.216 93.1391 178.216 94.5455C178.216 95.9518 178.004 97.1635 177.581 98.1806C177.158 99.1976 176.549 99.9824 175.754 100.535C174.972 101.087 174.03 101.364 172.927 101.364ZM172.927 99.4802C173.889 99.4802 174.665 99.0595 175.254 98.2182C175.844 97.3644 176.139 96.1401 176.139 94.5455C176.139 92.9508 175.844 91.7328 175.254 90.8915C174.665 90.0377 173.889 89.6107 172.927 89.6107C171.953 89.6107 171.171 90.0377 170.581 90.8915C170.004 91.7328 169.716 92.9508 169.716 94.5455C169.716 96.1401 170.004 97.3644 170.581 98.2182C171.171 99.0595 171.953 99.4802 172.927 99.4802Z" fill="white"/>
<path d="M195.189 101.138V87.9533H197.343L200.131 93.9051L202.919 87.9533H205.073V101.138H203.131V91.7579L200.939 96.4666H199.323L197.131 91.7767V101.138H195.189Z" fill="white"/>
<path d="M222.931 101.138V87.9533H227.489C228.514 87.9533 229.36 88.1291 230.027 88.4807C230.694 88.8197 231.187 89.2906 231.508 89.8933C231.828 90.496 231.989 91.1866 231.989 91.9651C231.989 92.7436 231.828 93.4342 231.508 94.0369C231.187 94.6396 230.694 95.1168 230.027 95.4684C229.36 95.8074 228.514 95.9769 227.489 95.9769H224.969V101.138H222.931ZM224.969 94.1876H227.392C228.264 94.1876 228.899 93.9867 229.296 93.5849C229.707 93.1831 229.912 92.6431 229.912 91.9651C229.912 91.2996 229.707 90.7659 229.296 90.3641C228.899 89.9498 228.264 89.7426 227.392 89.7426H224.969V94.1876Z" fill="white"/>
<path d="M254.5 101.364C253.59 101.364 252.776 101.182 252.058 100.817C251.353 100.453 250.795 99.9008 250.385 99.16C249.974 98.4066 249.769 97.4586 249.769 96.3159V87.9533H251.808V96.4289C251.808 97.4335 252.051 98.212 252.538 98.7644C253.026 99.3044 253.692 99.5743 254.538 99.5743C255.385 99.5743 256.051 99.3044 256.538 98.7644C257.026 98.212 257.269 97.4335 257.269 96.4289V87.9533H259.308V96.3159C259.308 97.4586 259.096 98.4066 258.673 99.16C258.25 99.9008 257.673 100.453 256.942 100.817C256.224 101.182 255.41 101.364 254.5 101.364Z" fill="white"/>
<path d="M280.723 101.138V89.7426H277.108V87.9533H286.377V89.7426H282.761V101.138H280.723Z" fill="white"/>
<path d="M304.715 101.138V87.9533H313.311V89.7426H306.754V93.5849H312.734V95.3554H306.754V99.3483H313.311V101.138H304.715Z" fill="white"/>
<path d="M331.823 101.138V87.9533H336.226C337.278 87.9533 338.143 88.1291 338.823 88.4807C339.515 88.8322 340.028 89.3094 340.361 89.9121C340.707 90.5023 340.88 91.174 340.88 91.9274C340.88 92.7813 340.656 93.5409 340.207 94.2064C339.771 94.8594 339.098 95.3365 338.188 95.6379L341.015 101.138H338.649L336.073 95.9204H333.861V101.138H331.823ZM333.861 94.1123H336.111C337.034 94.1123 337.707 93.9114 338.13 93.5095C338.566 93.1077 338.784 92.5804 338.784 91.9274C338.784 91.2619 338.573 90.7346 338.149 90.3453C337.726 89.9435 337.04 89.7426 336.092 89.7426H333.861V94.1123Z" fill="white"/>
<path d="M389.345 101.138L385.191 87.9533H387.384L390.557 98.5008L393.73 87.9533H395.922L391.768 101.138H389.345Z" fill="white"/>
<path d="M413.818 101.138V99.3671H416.741V89.7238H413.857V87.9533H421.664V89.7238H418.78V99.3671H421.703V101.138H413.818Z" fill="white"/>
<path d="M445.099 101.364C444.15 101.364 443.317 101.194 442.599 100.855C441.894 100.516 441.336 100.033 440.926 99.4048C440.528 98.777 440.323 98.0299 440.31 97.1635H442.464C442.477 97.829 442.708 98.4003 443.156 98.8774C443.618 99.342 444.259 99.5743 445.08 99.5743C445.836 99.5743 446.426 99.4048 446.849 99.0658C447.272 98.7142 447.483 98.2622 447.483 97.7097C447.483 97.2451 447.355 96.8621 447.099 96.5608C446.855 96.2469 446.471 95.9706 445.945 95.732C445.419 95.4809 444.74 95.2235 443.907 94.9598C442.791 94.6082 441.971 94.1248 441.445 93.5095C440.919 92.8817 440.657 92.1158 440.657 91.2117C440.657 90.1695 441.041 89.3282 441.81 88.6878C442.58 88.0475 443.637 87.7273 444.983 87.7273C446.291 87.7273 447.342 88.06 448.137 88.7255C448.932 89.3785 449.342 90.2888 449.368 91.4566H447.195C447.195 91.1426 447.105 90.8413 446.926 90.5525C446.746 90.2511 446.49 90.0063 446.156 89.8179C445.823 89.617 445.413 89.5166 444.926 89.5166C444.323 89.504 443.817 89.6484 443.407 89.9498C442.996 90.2386 442.791 90.6341 442.791 91.1364C442.791 91.7516 443.041 92.2351 443.541 92.5866C444.041 92.9257 444.855 93.2772 445.983 93.6414C446.689 93.8674 447.31 94.1437 447.849 94.4701C448.4 94.784 448.829 95.1921 449.137 95.6944C449.458 96.1841 449.618 96.8119 449.618 97.5779C449.618 98.281 449.438 98.9214 449.08 99.499C448.721 100.064 448.201 100.516 447.522 100.855C446.855 101.194 446.048 101.364 445.099 101.364Z" fill="white"/>
<path d="M468.226 101.138V99.3671H471.149V89.7238H468.264V87.9533H476.072V89.7238H473.187V99.3671H476.11V101.138H468.226Z" fill="white"/>
<path d="M499.372 101.364C498.282 101.364 497.34 101.087 496.545 100.535C495.75 99.9824 495.141 99.1976 494.718 98.1806C494.295 97.1635 494.083 95.9518 494.083 94.5455C494.083 93.1391 494.295 91.9274 494.718 90.9103C495.141 89.8933 495.75 89.1085 496.545 88.556C497.34 88.0035 498.282 87.7273 499.372 87.7273C500.474 87.7273 501.416 88.0035 502.198 88.556C502.993 89.1085 503.602 89.8933 504.025 90.9103C504.448 91.9274 504.66 93.1391 504.66 94.5455C504.66 95.9518 504.448 97.1635 504.025 98.1806C503.602 99.1976 502.993 99.9824 502.198 100.535C501.416 101.087 500.474 101.364 499.372 101.364ZM499.372 99.4802C500.333 99.4802 501.109 99.0595 501.698 98.2182C502.288 97.3644 502.583 96.1401 502.583 94.5455C502.583 92.9508 502.288 91.7328 501.698 90.8915C501.109 90.0377 500.333 89.6107 499.372 89.6107C498.397 89.6107 497.615 90.0377 497.025 90.8915C496.448 91.7328 496.16 92.9508 496.16 94.5455C496.16 96.1401 496.448 97.3644 497.025 98.2182C497.615 99.0595 498.397 99.4802 499.372 99.4802Z" fill="white"/>
<path d="M521.787 101.138V87.9533H523.787L529.421 97.6155V87.9533H531.364V101.138H529.364L523.729 91.4754V101.138H521.787Z" fill="white"/>
</svg>
