<svg id="Layer_1" data-name="Layer 1" xmlns="http://www.w3.org/2000/svg" xmlns:xlink="http://www.w3.org/1999/xlink" viewBox="0 0 5209.23 1524.34"><defs><style>.cls-1{fill:none;}.cls-2{fill:#e7e6ec;}.cls-3{clip-path:url(#clip-path);}.cls-4{fill:#aa273e;}.cls-4,.cls-5,.cls-6{fill-rule:evenodd;}.cls-5{fill:#fff;}.cls-6{fill:#005938;}</style><clipPath id="clip-path"><rect class="cls-1" x="401.77" y="126.21" width="4630.97" height="1175.68"/></clipPath></defs><title>MJR_Logo_Contained_BUILD_190124</title><polygon class="cls-2" points="5209.23 0 5032.74 1426.13 286.08 1524.34 0 0 5209.23 0"/><g class="cls-3"><path class="cls-4" d="M4470.32,151c299.32,0,542,242.74,542,542s-242.71,542-542,542-542-242.73-542-542,242.72-542,542-542"/><path class="cls-4" d="M449.24,1030.14c0,4.95,16.11,8.22-9.39,8.22-40.19,7.76,24.66,11.64-28.28,21.86,0,24.31,25.63,13.69,117.73,13.69,65.09,12.61,157.54-6.88,207.21,2.72,103.61-4.4,206.16-12.74,315.51-12.56,184.41.31,98-.8,176,13.8.62,5.2,314.1-4.88,365.57-4.88,83.4,0,201.17,1.19,282.55,4.58,122.88,5.07,287.27-4.58,414.43-4.58,41.11,8,287.26-4.28,287.26,2.71,158.67,2.14,292.8,3,447.35,5.1,24.84-6.14,272.41-24.41,272.38-23,73.39,6.27,147.35,11.61,222.11,17.94,18.39,3.59,34.54,5.87,61.22,4.6,58.37-2.81,75.39,8.21,122.45-.92,71.23,0,130.45-5.47,193-5.47,23.62-4.6-26.16-12.28,0-17.35,31.64,0-24.16-29.14-61.19-29.14,0,6.09-195.81.36-216.63-3.66-61.2,0-122.43,6.38-183.65,6.38-87.34-12.73-422.82,20.08-456.8,9.5-167.25-5.21-341.38-9.62-508.59-14.08-168-4.45-343.42-3.75-512.74-5.16-37,13.16-101,11.74-145.84,17.08,0,4.53-337.64-21.8-343.42-22.16.06-1-5.11-.6-9.4-1-45.25-4.41-320.48,1.55-357.49,4.27-85,6.32-74.72-8.11-151.06,0-84.7,9.06-441.21-7.37-500.32,11.56"/></g><path class="cls-5" d="M4466,413.31c-97.65,202.36-163.78,402.39-320.59,552.22-22.9,18.57-71.43,12.84-92.46-27.74-22.09-52.53,30.34-184.29,119.4-309.46,12-14.65,16.21-39.58-5.74-35.2-90.35,27.7-159.4,108.07-190.49,282.48-8.53,65,22.57,110.07,59.3,152.33,32.51,27.18,70.78,31.42,117.43,2.12C4222.47,983,4291,951.28,4442.69,656.6c37-77.19,100.14-262.35,121.72-285.64a490.09,490.09,0,0,0,111-8.48c18.35-5.33,39.35-49.08,0-61.33-79.27-23.78-190.79-18.17-366,45.47-12.27,5.11-18,15-23.48,41.58-5.37,23.52,18.17,25,47.8,21.93,40.85-6,78.29-19.76,117.4-29.64,12-3.17,22.91,4.67,14.85,32.82"/><path class="cls-5" d="M4485.06,801.54q42.82-82,85.63-163.95c5.57-9.31,3.91-12.7-4.18-14.81-8.8-2.47-17.94-.23-25.75-6-7.75-26-1.53-49.84,26.77-67,23.86-8.12,46.18-21.53,65.65-45.51,1.12-10,3.6-16.59,7.41-22.19,3.94-6.31,10.4-8.34,17.94-8.48,80.8-3.91,158.07-5,210.53,13.76,110.57,60.75,53.79,224.92-18,287.77-56.75,46.37-142.17,99.58-317.4,121.65-6.53.17-8.36,4.59-7.71,11.91,40.53,86.06,79.3,170.78,119.84,256.84,2.75,12.48,1.05,33.16-1.87,39-8.56,11.1-15.12,21.7-48.15,17.42-8.05-2.17-18.35-8.91-29.29-27.92q-40.22-102.61-80.39-205.24c-10.13-5.07-20.05-5.42-29.63,0q-42.91,98.89-85.7,197.83a88.82,88.82,0,0,1-23.31,27.51c-8.8,7.56-34,10.29-45.22-10.75-5.88-16.2-9-34.46-3.44-53.77,13.29-39.14,36.7-81.81,61.37-122.76q22-40.83,44.07-81.63c5.2-9.67,7.31-15.22,9.65-25.84q10.1-46.78,20.32-93.52c1.56-14.39,4.25-17,15.9-18,12.95-1.45,24.6-2.55,34.93-6.35Zm69.29,8.74c29.19-62.07,63.13-125.57,94.46-188.36,7.07-14.49,30.92-33.46,51.44-49.87,36.67-20.73,80.67-24.56,131.13-29.55,49,25.7,53.86,91.13,1.87,153.27-53.11,62.94-151.17,97.21-258.55,125.58-10.6,1.27-17.63-2.13-20.35-11.07"/><path class="cls-5" d="M4729,1145.93l-31.47-50.32,37.31-23.29,5.34,8.5-27.15,17,7,11.16,25.28-15.79,5.3,8.46-25.28,15.79,8.57,13.69,28.1-17.57,5.33,8.47-38.29,24Zm32.62-43.84,8.66-7.93c2.92,2.68,5.78,4.14,8.6,4.32s5.64-.84,8.56-3c3.09-2.29,4.93-4.72,5.47-7.19a7.3,7.3,0,0,0-1.05-6.35,5.64,5.64,0,0,0-3.19-2.12,9.51,9.51,0,0,0-5,.58c-1.42.45-4.45,1.67-9.24,3.65-6.08,2.61-10.84,3.76-14.27,3.49a15.57,15.57,0,0,1-11.59-6.26,14.8,14.8,0,0,1-3-8.33,16.24,16.24,0,0,1,2.28-9.23,28.79,28.79,0,0,1,8.08-8.68c5.95-4.51,11.39-6.54,16.38-6.22s9.14,2.64,12.61,6.88l-9.28,7.62c-2.24-2.11-4.45-3.21-6.56-3.26s-4.58.93-7.27,3-4.55,4.31-5.27,6.64a4.34,4.34,0,0,0,.72,4.05,4.45,4.45,0,0,0,3.57,1.82c2,.11,5.74-1,11.21-3.42a57.3,57.3,0,0,1,12.88-4.41,17,17,0,0,1,8.87.88,18.58,18.58,0,0,1,11.07,15.43,17.36,17.36,0,0,1-2.44,10.15,34.33,34.33,0,0,1-9,9.48c-6,4.5-11.66,6.61-17,6.27s-10.23-3-14.88-7.77Zm66.5-30.21-33.61-36-12.91,12-6.83-7.32,34.45-32.16,6.9,7.32-12.88,12,33.64,36-8.76,8.17Zm20.42-19.63-8.19-7.89,7.88-8.16,8.19,7.89-7.88,8.16Zm46.11-55.57-7,9-33.78-26.38a38.57,38.57,0,0,1-2.24,16.89l-8.12-6.34a33.17,33.17,0,0,0,1.56-11,20.75,20.75,0,0,0-3.06-11.47l5.68-7.27,47,36.66ZM4893.09,975l4.79-10a7.63,7.63,0,0,0,5.3.85,6.18,6.18,0,0,0,3.77-3,7.25,7.25,0,0,0,.44-6.77c-.91-2.52-4.21-5.78-9.72-9.79a13.52,13.52,0,0,1-1.46,11.72,16,16,0,0,1-11,7.42c-4.86.92-9.75-.1-14.65-3.14-5.06-3.21-8.25-7.33-9.48-12.3a18.21,18.21,0,0,1,2.55-14.51,18.51,18.51,0,0,1,13.76-8.86c6-.8,13.49,1.62,22.57,7.27s14.78,11.6,16.68,17.55a19.54,19.54,0,0,1-2.18,17.12c-2.48,4-5.53,6.48-9.1,7.57s-7.72.77-12.3-1.18Zm-7.44-35c-3.13-1.92-5.95-2.72-8.57-2.38a7.37,7.37,0,0,0-5.71,3.36,6.48,6.48,0,0,0-.64,5.74c.64,2,2.62,4.08,5.81,6.11s6,2.88,8.36,2.52a7.26,7.26,0,0,0,5.3-3.35,7.09,7.09,0,0,0,.68-6.09c-.65-2.15-2.41-4.15-5.23-5.91Zm-.21-19-9.41-4.81,17.64-34.63,7.33,3.7a60.63,60.63,0,0,0,7.68,14.91,77.23,77.23,0,0,0,13.32,15.3,70.11,70.11,0,0,0,14.72,10.41l-5,9.75a74.56,74.56,0,0,1-20.05-15.92A82.25,82.25,0,0,1,4897.17,898L4885.44,921Zm48.93-25,3-11a9.44,9.44,0,0,0,6.69-.53,7.75,7.75,0,0,0,3.54-11c-1.19-2.25-3.6-4.06-7.24-5.48-3.36-1.27-6.25-1.49-8.56-.61a8.06,8.06,0,0,0-4.8,5c-1.18,3-.88,6.25.89,9.74l-4.52,8.11-26.74-16.49,10.73-28,9.93,3.79-7.68,20,8.8,5.28a16.7,16.7,0,0,1,1-7.93,17,17,0,0,1,9.72-10c4.65-2,9.71-1.89,15.18.22a21.16,21.16,0,0,1,10.71,8.6c3.5,5.52,4,11.43,1.56,17.83-1.94,5.12-4.93,8.77-8.9,10.93a18.13,18.13,0,0,1-13.29,1.55"/><polygon class="cls-6" points="2054.42 1132.09 2082.19 1132.09 2082.19 1132.12 2124.75 1213.69 2167.33 1132.09 2195.1 1132.09 2195.1 1277.2 2167.33 1277.2 2167.33 1193.35 2124.67 1277.2 2082.19 1193.53 2082.19 1277.2 2054.42 1277.2 2054.42 1132.09 2054.42 1132.09"/><path class="cls-6" d="M593.56,1276.58H564.8v-59.06H513.28v59.06H484.53V1131.25h28.75v57.52H564.8v-57.52h28.76v145.33Zm196.14-72.69c0,20.69-7.26,38.37-21.91,53s-32.33,22-53,22-38.34-7.33-53-22-21.92-32.32-21.92-53,7.28-38.32,21.92-53,32.33-21.94,53-21.94,38.35,7.34,53,21.94,21.91,32.32,21.91,53Zm-28.75,0a46.33,46.33,0,1,0-13.55,32.64A44.42,44.42,0,0,0,761,1203.89Zm367.41,72.69H1033V1131.25h90.86V1160h-62.12v28.75h57.57v28.75h-57.57v30.31h66.65v28.75Zm160.31-43.46a40.92,40.92,0,0,1-6.55,22.52,42.34,42.34,0,0,1-17.25,15.47,71.23,71.23,0,0,1-64.66,0q-18-8.86-22.53-28.28l27.7-9.71q0,8.48,7.41,12.27a43.87,43.87,0,0,0,19.84,4.73,43.28,43.28,0,0,0,19.68-4.73,12.87,12.87,0,0,0,7.6-12.35c0-5.12-2.58-8.73-7.69-10.76l-45.48-18.07a33.94,33.94,0,0,1-15.87-13,36,36,0,0,1-5.92-20.28,37.35,37.35,0,0,1,6-20.65,38.89,38.89,0,0,1,15.82-14.15,59.2,59.2,0,0,1,51.61,0,37.43,37.43,0,0,1,19.72,21.78l-27.13,9.67a9.62,9.62,0,0,0-5-5.56,30.53,30.53,0,0,0-13.33-3,30.86,30.86,0,0,0-13.49,3,9.24,9.24,0,0,0-5.43,8.91c0,3.44,1.81,5.9,5.43,7.45l45.78,18.31a36.64,36.64,0,0,1,17.3,14.15,39.65,39.65,0,0,1,6.45,22.31Zm175.76-73.1H1412.2v116.56h-28.75V1160h-52.28v-28.77h133.26V1160Zm173.29-28.77L1583.37,1213v63.61h-28.75V1213l-54.51-81.72h34.49l34.4,51.37,34.19-51.37Zm139.43,145.33h-96.92V1131.25H1709v116.58h68.15v28.75Zm140.12,0h-95.35V1131.25h90.81V1160h-62.06v28.75h57.57v28.75h-57.57v30.31h66.6v28.75Zm427.23,0h-95.4V1131.25H2340V1160h-62.1v28.75h57.55v28.75h-57.55v30.31h66.63v28.75Zm174.06,0H2484.5l-29.33-46.19-29.56,46.19h-34.05l46.5-72.64-46.5-72.69h34.05l29.56,46.16,29.33-46.16h34.06l-46.44,72.69,46.44,72.64Zm78.86,0h-30.27V1131.25h30.27v145.33Zm175.77-19.68q-22,22-53,22t-53-22q-22-22-22-53t22-53q22-21.9,53-21.94t53,22l-20.29,20.28a44.88,44.88,0,0,0-32.74-13.49,46.21,46.21,0,0,0,0,92.42,44.86,44.86,0,0,0,32.74-13.51l20.29,20.29Zm174.4,19.68h-31.8l-8.48-18.13h-59.66l-8.47,18.13h-31.81l70.09-149.87,70.13,149.87Zm-53.71-46.88-16.42-35-16.37,35Zm226.44,47.5-28.42-.31-77.57-102.47v102.16h-28.77V1131.42l31.09.31,74.9,98.44v-98.92h28.77v146ZM3346.05,1160h-62.11v28.75h57.58v28.75h-57.58v59.06H3255.2V1131.25h90.85V1160Zm196.19,43.87q0,31-22,53t-53,22c-20.73,0-38.36-7.33-53.06-22s-21.93-32.32-21.93-53,7.33-38.32,21.93-53,32.33-21.94,53.06-21.94,38.33,7.34,53,21.94,22,32.32,22,53Zm-28.74,0a46.4,46.4,0,1,0-13.59,32.64,44.49,44.49,0,0,0,13.59-32.64Zm219.6,0q0,31-21.93,53t-53,22q-31,0-53-22t-21.93-53q0-31,21.93-53t53-21.94q31.05,0,53,21.94t21.93,53Zm-28.75,0a46.33,46.33,0,1,0-13.55,32.64,44.45,44.45,0,0,0,13.55-32.64Zm190.12,0q0,30.11-21.27,51.37t-51.41,21.27h-42.42V1131.25h42.42q30.12,0,51.41,21.26t21.27,51.43Zm-28.78,0a43.89,43.89,0,0,0-43.9-43.92h-13.63v87.81h13.63a43.86,43.86,0,0,0,43.9-43.89"/><path class="cls-6" d="M1166.79,976.51c-82.71,2.58-113,1.69-121.18,0v-581L814.81,715.05,583.34,395.52c-.66,3.9-1,23.18-1,107.11V976.51H463.13V201.15h131.8l220,331.6,220-331.6h131.84V976.51Z"/><path class="cls-6" d="M1350,367.83c.67,21.95.4,39.43,0,52.36-.27,9.05,0,37.49,0,85.29v427.4c0,7.86,1.28,22.64,0,44.6H1227V944.54c.87-174.32-1.59-313.87,0-576.71Z"/><path class="cls-6" d="M1916.3,296.11c-18.47-8.38-95-14.5-114.67-14.5-238.4,0-303.6,177.25-275,378,10.81,75.64,41,116,94,163.81C1679,876,1741.51,895.76,1801,891.21V769.08l-1-71.73-112.43-1V593.66q222.89,0,227.78-1c.62-.1,1,6.18,1,18.43V939.69c0,8.38-1.93,20.64-3.87,36.82-3.9,6.44-12,10.71-24.26,12.58-4.51.71-23.25,1-56.2,1q-195.77,0-315-120.16-111.48-112.39-111.45-279.15c0-118.88,28.62-214.1,86.88-284.93,64-77.76,150-117.47,273-117.47,28.47,1.16,79.87,1.82,112.33,4.07,14.8,1.06,27.62,2.9,38.59,8.73v95Z"/><path class="cls-6" d="M2520.15,976.51q-23.22,11.67-92.06,11.6c-258.47,0-408.47-148.07-431.32-445.8-6.89-90.18-1.59-201.61-2.93-333.39h132.82c-11.6,150-34.62,291.55,9.57,438.2,20.67,68.82,43.8,113.84,78.6,157.15q67,83.33,157,83.38c18.07,0,31.36-1.64,39.73-4.86V383.35c0-16.35-2.54-76.88,0-182.2h108.56V976.51Z"/><path class="cls-6" d="M2947.72,976.51H2596.84V201.15h349.91c0,23.19,2.57,58.71,0,81.42H2715.09V412.43h150.24v80.45c-22,.65-35.86,1.09-41.68,1-23.34-.52-84.24-.83-106.61-1-.53,64.57-1.95,348.18-1.95,399.3q2.92,3.9,232.63,0v84.33Z"/><path class="cls-6" d="M3383.69,886.36v90.15h-360V201.15h118.23V335.71l2.92,550.65c12.26,1.94,20.45,1.94,238.89,0"/><path class="cls-6" d="M3407.14,167.94a92.36,92.36,0,0,1,4.2,22.31c.79,10.1,1.24,16.06,1.24,17.83,0,31.52-9.09,61-27.49,88.29-18.87,28-60.91,77.63-93.11,94.26h-48.12c3.49-2.95,8.51-8.46,15.58-16.06a195.19,195.19,0,0,0,14.68-17.81c30.4-41.6,39.6-101.54,39.6-125.49,0-16.05-5.25-34.37-21-51.74l-10.49-11.59c43.13-12,85.16-15.36,124.9,0"/><path class="cls-6" d="M3545.61,742.44c1.37,37.68,9.79,67.44,24.55,89.49,22.64,26.55,54.36,40,95.21,40,74.52,0,104.73-49.51,99.8-109.7C3754.3,654.71,3602.93,626,3527.92,565.53c-25.58-13.9-45.26-34.54-58.75-61.19q-20.28-42.33-21.31-93.9,1.79-49.62,19.58-91.65c11.15-28.8,26.29-52.55,45.12-71.47,14.68-14.1,34.53-26.24,59.38-35.93q36.26-14.77,77.58-14.43c41.11,0,77.15,8.64,108.29,25.4s54.06,39.48,68.87,68.23c13.12,25.59,16.65,42.67,22.46,83.15l-92.61,18.44c-.75-22.77-11.65-44.15-20.43-59q-28.32-32.34-80.19-32.32c-59.06,0-92.18,40.8-92,89.83-2.6,89.91,163.68,146.63,230.29,188.7,27.13,15.13,48.88,37.45,65.59,66.48,15.57,29.55,23.72,53.54,25.66,97.39A284.8,284.8,0,0,1,3865,864.48q-29.87,54.13-81.93,83.38c-34.76,19.43-73.74,28.65-117.24,27.73-69.42,0-122.17-20.12-158.88-60.33-34.45-39.21-56.72-70.49-66.33-146.49l105-26.33Z"/><path class="cls-6" d="M1288.47,194.26c39.36,0,71.24,34.27,71.24,76.57s-31.88,76.54-71.24,76.54-71.18-34.27-71.18-76.54,31.89-76.57,71.18-76.57"/><polygon class="cls-6" points="837.79 1131.64 865.57 1131.64 908.15 1213.24 950.75 1131.64 978.53 1131.64 978.53 1276.72 950.75 1276.72 950.75 1192.92 908.04 1276.72 865.57 1193.04 865.57 1276.72 837.79 1276.72 837.79 1131.64 837.79 1131.64"/></svg>